<!--?xml version="1.0" encoding="utf-8"?-->
<!-- Generator: Adobe Illustrator 18.1.1, SVG Export Plug-In . SVG Version: 6.00 Build 0)  -->

<svg version="1.1"
     id="_x31_0"
     xmlns="http://www.w3.org/2000/svg"
     xmlns:xlink="http://www.w3.org/1999/xlink"
     x="40px"
     y="40px"
     viewBox="0 0 512 512"
     style="width: 48px; height: 48px; opacity: 1;"
     xml:space="preserve">
  <g>
	<path class="st0" d="M240.328,434.254c0,0-0.016-0.008-0.02-0.008c-0.035-0.015-0.144-0.062-0.144-0.062
		s-14.942,34.683-5.434,58.586c5.938,14.914,22.015,22.977,35.722,17.52c13.707-5.454,19.848-22.359,13.914-37.274
		C275.102,449.734,242.039,435.003,240.328,434.254z" style="fill: rgb(75, 75, 75);"></path>
    <path class="st0" d="M131.516,373.332l-0.019-0.012c-0.039-0.016-0.149-0.062-0.149-0.062s-14.945,34.687-5.434,58.586
		c5.934,14.914,22.016,22.977,35.723,17.524c13.702-5.458,19.847-22.364,13.91-37.278
		C166.293,388.832,133.293,374.109,131.516,373.332z" style="fill: rgb(75, 75, 75);"></path>
    <path class="st0" d="M342.961,370.578l-0.02-0.011c-0.039-0.016-0.148-0.063-0.148-0.063s-14.946,34.684-5.434,58.582
		c5.934,14.914,22.015,22.977,35.718,17.523c13.707-5.453,19.852-22.359,13.914-37.274
		C377.738,386.074,344.738,371.355,342.961,370.578z" style="fill: rgb(75, 75, 75);"></path>
    <path class="st0" d="M422.437,165.285c-7.718-48.878-48.648-86.859-98.867-90.038c-8.094-19.684-21.183-36.614-37.538-49.41
		c-0.402-0.317-0.829-0.594-1.234-0.902c-1.938-1.477-3.891-2.926-5.91-4.282c-0.27-0.183-0.558-0.343-0.832-0.523
		C258.746,7.379,235.735,0,211.336,0C144.453,0,90.043,54.414,90.043,121.297c0,6.633,0.532,13.199,1.586,19.664
		C57.094,159.058,34.66,194.93,34.66,235.633c0,59,48.004,107.004,107.004,107.004h242.961c51.121,0,92.714-41.594,92.714-92.715
		C477.34,212.762,455.199,179.91,422.437,165.285z M384.625,289.41H141.664c-29.653,0-53.778-24.125-53.778-53.777
		c0-25.262,17.176-46.813,41.77-52.414l26.222-5.976l4.286-0.95l-0.012-0.023l0.16-0.035l-11.949-29.082
		c-3.379-8.226-5.094-16.926-5.094-25.855c0-37.535,30.531-68.07,68.066-68.07c32.339,0,60.406,22.973,66.738,54.625l5.008,25.031
		l25.218-3.961c2.798-0.438,5.637-0.664,8.438-0.664c29.657,0,53.782,24.125,53.782,53.782c0,0.652-0.031,1.297-0.058,1.945
		l-0.895,22.906l22.512,4.286c18.562,3.534,32.035,19.828,32.035,38.746C424.113,271.695,406.398,289.41,384.625,289.41z"
          style="fill: rgb(75, 75, 75);"></path>
</g>
</svg>
