<!--?xml version="1.0" encoding="utf-8"?-->
<!-- Generator: Adobe Illustrator 18.1.1, SVG Export Plug-In . SVG Version: 6.00 Build 0)  -->

<svg version="1.1"
     id="_x31_0"
     xmlns="http://www.w3.org/2000/svg"
     xmlns:xlink="http://www.w3.org/1999/xlink"
     x="0px"
     y="0px"
     viewBox="0 0 512 512"
     style="width: 48px; height: 48px; opacity: 1;"
     xml:space="preserve">
<g>
	<path class="st0" d="M347.715,290.566c-1.187-1.184-2.496-2.168-3.715-3.301c-2.125-1.981-4.234-3.863-6.308-5.606
		c-0.367-0.297-0.695-0.66-1.07-0.953c-7.219,6.542-15.278,12.183-23.942,16.859c-0.402,0.207-0.793,0.449-1.199,0.652
		c0.019,0.012,0.039,0.028,0.058,0.043c-0.05,0.027-0.098,0.062-0.148,0.09c5.578,3.696,10.832,7.977,15.695,12.84
		c18.973,18.973,29.449,44.238,29.449,71.09c0,55.422-45.113,100.531-100.535,100.531c-55.457,0-100.535-45.11-100.535-100.531
		c0-30.586,13.727-58.043,35.375-76.493c3.086-2.594,6.328-5.031,9.758-7.266c-0.019-0.011-0.038-0.027-0.062-0.039
		c0.047-0.031,0.09-0.07,0.137-0.102c-9.207-4.801-17.672-10.734-25.293-17.64c-29.902,23.77-49.102,60.449-49.102,101.539
		C126.277,453.82,184.457,512,256,512c71.508,0,129.723-58.18,129.723-129.718C385.723,347.614,372.231,315.05,347.715,290.566z"
        style="fill: rgb(75, 75, 75);"></path>
  <circle class="st0" cx="256" cy="350.033" r="16.94" style="fill: rgb(75, 75, 75);"></circle>
  <path class="st0" d="M256,382.282c-9.355,0-16.938,7.582-16.938,16.937c0,9.356,7.582,16.942,16.938,16.942
		c9.356,0,16.942-7.586,16.942-16.942C272.941,389.863,265.356,382.282,256,382.282z"
        style="fill: rgb(75, 75, 75);"></path>
  <path class="st0" d="M241.09,214.707c-2.875,0-5.746,0-8.622,0c-6.714-0.004-13.582-0.278-20.281-0.027
		c-0.606-0.004-1.219-0.004-1.801-0.024c0.008,0.016,0.015,0.031,0.019,0.047c-0.058,0.004-0.113,0-0.172,0.004
		c4.863,14.461,16.637,26.058,31.184,30.672c16.07,5.098,34.054,1.234,46.633-9.981c5.543-4.942,9.648-11.102,12.492-17.855
		c0.398-0.895,0.844-1.75,1.199-2.676h-0.066c0.02-0.054,0.047-0.106,0.066-0.16C281.524,214.707,261.308,214.707,241.09,214.707z"
        style="fill: rgb(75, 75, 75);"></path>
  <path class="st0" d="M288.254,176.57c6.679,0,12.098-5.422,12.098-12.098c0-6.68-5.418-12.074-12.098-12.074
		c-6.676,0-12.07,5.394-12.07,12.074C276.184,171.148,281.578,176.57,288.254,176.57z"
        style="fill: rgb(75, 75, 75);"></path>
  <path class="st0" d="M223.723,176.57c6.675,0,12.094-5.422,12.094-12.098c0-6.68-5.418-12.074-12.094-12.074
		c-6.68,0-12.074,5.394-12.074,12.074C211.648,171.148,217.043,176.57,223.723,176.57z"
        style="fill: rgb(75, 75, 75);"></path>
  <path class="st0" d="M189.031,271.207c8.79,7.457,18.875,13.457,29.836,17.64c11.543,4.41,24.062,6.844,37.133,6.844
		c13.102,0,25.653-2.434,37.199-6.844c10.962-4.214,21.012-10.214,29.801-17.671c22.508-19.039,36.778-47.481,36.778-79.262
		c0-18.843-5.078-36.472-13.855-51.699c-0.906-1.613-1.821-3.222-2.813-4.793c8.211-1.226,15.457-3.394,21.454-6.594
		c4.262-2.278,7.378-6.078,8.781-10.703c1.402-4.625,0.918-9.519-1.363-13.774c-2.762-5.168-7.886-8.691-13.703-9.422
		c-0.59-0.078-1.168,0.062-1.758,0.047c-0.172-0.004-0.344-0.032-0.516-0.032s-0.332,0.055-0.5,0.063
		c-2.774,0.078-5.511,0.586-8,1.914c-1.546,0.832-3.797,1.516-6.332,2.094c-0.574,0.102-1.054,0.25-1.679,0.329l19.839-62.723
		c1.313-4.152-0.992-8.598-5.144-9.91l-83.266-26.34c-0.465-0.145-0.934-0.246-1.402-0.309c-3.778-0.477-7.356,1.82-8.508,5.457
		l-13.614,43.035l-6.308,19.707c-2.321-2.375-4.102-4.68-5.074-6.606c-2.719-5.382-7.918-9.046-13.902-9.801
		c-0.629-0.078-1.246,0.058-1.875,0.043c-0.129-0.004-0.262-0.023-0.394-0.023c-0.117,0-0.234,0.038-0.351,0.038
		c-2.688,0.055-5.34,0.516-7.77,1.742c-4.317,2.172-7.524,5.894-9.039,10.485c-1.512,4.594-1.149,9.496,1.027,13.808
		c2.695,5.34,6.656,10.59,11.668,15.692c0.625,0.668,1.211,1.332,1.871,2c-38.122,15.347-65.027,52.64-65.027,96.273
		C152.223,223.695,166.524,252.168,189.031,271.207z M322.625,100.312c-2.902-0.136-5.942-0.402-9.086-0.797
		c-5.77-0.726-11.683-1.898-17.656-3.426c-5.492-2.289-11.226-4.102-17.145-5.426c-5.781-2.187-11.309-4.641-16.465-7.371
		c-2.789-1.481-5.426-3.012-7.863-4.558l5.512-17.422l68.214,21.578L322.625,100.312z M309.066,135.422
		c0.149,0.016,0.29,0.024,0.438,0.043c14.965,14.191,24.328,34.234,24.328,56.449c0,28.375-15.273,53.25-38.007,66.84
		c-11.641,6.973-25.262,10.993-39.825,10.993c-14.527,0-28.117-3.989-39.762-10.962c-22.797-13.59-38.07-38.461-38.07-66.871
		c0-39.102,28.938-71.519,66.535-77.003c0.211,0.113,0.406,0.234,0.622,0.347c9.578,5.07,20,9.398,30.984,12.875
		c10.985,3.473,22.004,5.926,32.754,7.289H309.066z" style="fill: rgb(75, 75, 75);"></path>
  <path class="st0" d="M255.988,206.847c8.922,0,16.179-7.258,16.179-16.175c0-8.922-7.258-16.18-16.179-16.18
		c-8.922,0-16.18,7.258-16.18,16.18C239.808,199.59,247.066,206.847,255.988,206.847z"
        style="fill: rgb(75, 75, 75);"></path>
</g>
</svg>
